<?xml version="1.0" standalone="no"?>
<!DOCTYPE svg PUBLIC "-//W3C//DTD SVG 20010904//EN"
 "http://www.w3.org/TR/2001/REC-SVG-20010904/DTD/svg10.dtd">
<svg version="1.0" xmlns="http://www.w3.org/2000/svg"
 width="471.000000pt" height="471.000000pt" viewBox="0 0 471.000000 471.000000"
 preserveAspectRatio="xMidYMid meet">
<metadata>
Created by potrace 1.14, written by Peter Selinger 2001-2017
</metadata>
<g transform="translate(0.000000,471.000000) scale(0.100000,-0.100000)"
fill="#000000" stroke="none">
<path d="M1517 4215 c-12 -178 -8 -405 8 -470 37 -145 98 -220 241 -299 197
-110 315 -202 357 -281 15 -29 21 -58 22 -105 0 -58 -4 -73 -35 -125 -44 -74
-201 -234 -300 -307 -68 -49 -163 -108 -291 -181 -102 -58 -200 -161 -254
-267 -36 -72 -74 -195 -95 -315 -55 -304 -99 -425 -182 -501 -44 -40 -159 -86
-252 -100 -52 -7 -28 -24 35 -24 90 0 171 34 263 111 77 64 90 80 135 167 27
54 70 157 95 230 167 477 162 470 406 651 325 241 476 415 510 588 27 138 -13
224 -173 370 -62 56 -137 121 -167 144 -177 135 -239 256 -275 539 -10 74 -23
167 -29 205 l-12 70 -7 -100z"/>
<path d="M2670 4188 c-227 -17 -513 -113 -704 -236 -32 -21 -197 -142 -214
-157 -6 -5 36 -80 58 -103 12 -13 65 -57 117 -99 52 -42 148 -128 213 -192
136 -135 159 -179 167 -317 6 -98 -6 -162 -51 -260 -64 -138 -231 -319 -424
-461 -279 -204 -290 -215 -277 -269 3 -17 19 -37 38 -49 26 -16 105 -134 120
-178 6 -18 191 83 447 245 74 46 141 88 149 93 11 6 12 1 7 -29 -9 -47 9 -48
25 -1 7 19 17 35 21 35 4 0 8 7 8 15 0 8 10 20 23 26 19 10 20 10 11 -2 -6 -8
-15 -41 -19 -74 l-7 -60 21 25 21 25 -15 -37 c-18 -45 -21 -82 -4 -58 8 11 9
6 4 -20 l-6 -35 20 35 c22 38 27 36 11 -4 -5 -14 -6 -26 -2 -26 17 0 62 97 60
130 -4 56 4 83 32 110 39 38 45 38 24 -2 -17 -32 -16 -32 1 -18 13 11 16 11
11 2 -10 -17 -16 -102 -7 -102 4 0 5 -17 3 -37 -4 -36 -11 -43 -130 -128 -299
-214 -420 -298 -463 -322 l-47 -27 84 -94 c112 -125 172 -213 236 -341 l53
-107 130 -7 c72 -3 153 -12 180 -20 43 -11 50 -17 53 -41 2 -15 -3 -45 -12
-66 l-15 -38 37 -6 c20 -3 80 -6 133 -6 77 0 98 -3 103 -15 8 -21 61 -19 94 4
16 12 61 24 112 31 92 12 225 47 323 84 188 71 433 231 581 381 98 98 215 256
293 395 44 78 99 216 136 347 18 60 12 69 -43 75 -32 3 -35 6 -38 37 -3 32 -2
33 25 26 15 -3 37 -14 47 -23 11 -9 16 -12 13 -6 -4 7 -1 14 6 17 16 6 37 121
37 201 0 49 2 54 19 51 17 -3 19 0 11 20 -5 12 -7 25 -4 28 2 2 -2 10 -11 17
-11 9 -15 32 -15 79 0 198 -83 480 -203 691 -103 182 -148 242 -276 370 -131
130 -241 214 -382 289 -125 66 -188 91 -362 140 -203 57 -342 68 -587 49z
m168 -1871 c9 -7 10 -13 0 -24 -10 -12 -14 -11 -24 9 -23 40 -15 45 24 15z
m1467 -64 c13 -16 25 -31 25 -34 0 -3 -26 -9 -57 -12 -32 -3 -82 -9 -110 -13
-50 -6 -53 -5 -53 15 0 12 6 21 15 21 9 0 15 9 15 23 1 20 2 21 14 5 17 -23
29 -23 51 2 26 29 71 26 100 -7z m-1425 -23 c0 -9 -5 -21 -12 -28 -9 -9 -8
-12 4 -12 40 0 23 -20 -31 -38 l-59 -20 10 31 c6 18 15 36 19 42 5 5 9 16 9
25 0 12 9 17 30 17 21 0 30 -5 30 -17z m1136 -30 c8 -18 12 -35 10 -37 -3 -3
-54 -26 -114 -52 -61 -26 -165 -78 -232 -116 -107 -59 -125 -66 -146 -56 -13
6 -24 17 -24 24 0 7 -16 22 -35 33 l-35 20 52 24 c29 12 71 32 93 43 22 11 96
43 165 72 113 48 126 51 137 36 11 -14 15 -13 35 11 41 47 74 46 94 -2z
m-1599 -102 c-3 -8 -6 -5 -6 6 -1 11 2 17 5 13 3 -3 4 -12 1 -19z m474 8 c15
9 10 -6 -12 -37 -11 -16 -19 -36 -17 -45 3 -14 7 -13 29 4 l26 21 3 -52 c2
-44 5 -81 9 -119 1 -5 4 -7 9 -6 4 0 15 -2 24 -6 10 -4 42 -6 72 -4 46 2 56 0
60 -14 2 -10 14 -18 25 -18 12 0 24 8 28 18 8 23 33 47 71 66 41 21 62 20 62
-3 0 -10 3 -45 6 -78 l7 -60 -84 -35 c-173 -72 -271 -76 -364 -14 -43 28 -59
48 -84 98 -44 90 -65 244 -30 223 5 -4 9 -1 9 5 0 6 4 8 10 5 5 -3 29 7 52 23
50 34 72 42 76 30 2 -4 8 -6 13 -2z m477 -259 c14 -16 14 -19 2 -27 -24 -16
-27 -12 -34 43 -4 28 -9 63 -11 77 -3 14 3 3 11 -25 9 -27 23 -58 32 -68z
m102 33 c0 -4 -15 -14 -34 -22 l-34 -17 4 32 c1 18 3 33 3 34 2 4 61 -22 61
-27z"/>
<path d="M727 3866 c-4 -10 -7 -39 -7 -64 0 -26 -7 -117 -15 -202 -27 -278
-74 -855 -80 -985 -1 -33 -10 -195 -20 -360 -9 -173 -14 -340 -10 -395 11
-159 -21 -301 -83 -369 -30 -33 -63 -52 -177 -100 -77 -32 -155 -62 -172 -66
-46 -9 -50 -23 -9 -30 75 -15 251 31 326 85 72 51 121 164 160 370 19 98 22
136 17 257 -6 150 0 209 46 448 60 311 75 685 51 1235 -7 159 -14 209 -27 176z"/>
<path d="M1504 1818 c-1 -211 -14 -334 -50 -498 -30 -132 -77 -285 -120 -388
-24 -58 -41 -108 -39 -110 10 -11 56 11 85 39 57 58 106 179 136 339 21 116
30 502 15 651 -21 194 -26 187 -27 -33z"/>
<path d="M1581 1938 c64 -159 128 -402 154 -577 18 -122 23 -323 11 -379 -9
-37 -8 -37 63 -10 l24 9 -6 137 c-13 271 -109 625 -222 818 -37 62 -49 64 -24
2z"/>
<path d="M1770 1657 c0 -3 23 -32 51 -64 111 -127 226 -314 284 -463 32 -82
35 -85 67 -88 57 -4 62 7 31 74 -64 140 -158 277 -273 398 -65 68 -160 153
-160 143z"/>
<path d="M1781 1534 c40 -152 69 -336 69 -448 0 -53 4 -96 9 -96 5 0 21 4 36
10 25 10 25 10 20 92 -8 107 -39 277 -66 358 -23 70 -73 175 -88 184 -5 3 4
-42 20 -100z"/>
<path d="M412 1524 c-90 -45 -215 -144 -201 -159 9 -8 311 176 317 193 7 21
-20 13 -116 -34z"/>
<path d="M60 1235 c0 -56 68 -115 172 -151 114 -39 216 -30 338 30 57 28 139
90 130 99 -3 3 -50 -8 -105 -25 -199 -61 -423 -46 -488 32 -28 33 -47 39 -47
15z"/>
<path d="M2185 1008 c-151 -14 -423 -71 -580 -122 -134 -44 -371 -152 -394
-180 -7 -8 34 -1 111 21 273 76 426 109 653 144 151 23 445 37 445 22 0 -38
-110 -140 -228 -213 -29 -18 -51 -34 -49 -36 2 -2 33 5 68 16 129 39 253 136
337 261 23 34 42 65 42 70 0 13 -125 29 -216 28 -49 -1 -134 -6 -189 -11z"/>
</g>
</svg>
